<svg xmlns="http://www.w3.org/2000/svg" viewBox="47.56 52.06 471.82 338.55">
<defs>
    <style>
      .cls-1 {
        fill: #1d1d1b;
      }

      .cls-2 {
        fill: #d0b8a7;
      }
    </style>
  </defs>
<path class="cls-2" d="M177.36,374.25c-.03,1.9-.92,3.22-1.35,3.83-.21.29-1.15,1.6-2.95,2.51-2.11,1.06-4.08.9-4.79.84-4.49-.39-7.09-4.15-7.46-4.71.68-.59,1.35-1.18,2.03-1.77.31.51,2.2,3.5,5.55,3.9.54.06,1.87.2,3.26-.52.19-.1,2.72-1.46,2.72-3.83,0-2.06-1.9-3.39-2.5-3.82-.41-.29-.47-.26-3.66-1.55-2.15-.87-2.47-1.03-2.88-1.27-.92-.55-1.92-1.15-2.71-2.34-1.11-1.67-1.09-3.39-1.08-3.91.02-.66.15-2.13,1.04-3.52,1.64-2.53,5-3.49,7.76-3.06,3.67.58,5.58,3.52,5.89,4.01-.63.46-1.25.92-1.88,1.38-.18-.28-1.86-2.76-4.79-2.87-.37-.01-3.12-.11-4.4,1.98-.84,1.37-.71,3.12-.03,4.33.7,1.22,2.18,1.83,5.15,3.04,1.77.72,2.54.86,3.84,1.75.76.51,1.57,1.08,2.25,2.14.96,1.51.99,3.01.98,3.47Z"/>
<path class="cls-2" d="M214.58,381.25h-3v-23.02h-8.65v-2.63h20.29v2.63h-8.63v23.02Z"/>
<path class="cls-2" d="M270.72,355.42v16.6c0,1.81-.37,3.43-1.1,4.84-.73,1.42-1.83,2.53-3.31,3.34-1.47.81-3.32,1.22-5.55,1.22-3.17,0-5.58-.86-7.24-2.58-1.66-1.72-2.48-4.02-2.48-6.9v-16.53h3v16.62c0,2.18.58,3.85,1.73,5.04,1.15,1.18,2.87,1.77,5.17,1.77,1.57,0,2.85-.28,3.85-.85,1-.57,1.74-1.36,2.23-2.39.49-1.02.73-2.21.73-3.55v-16.64h2.97Z"/>
<path class="cls-2" d="M322.66,368c0,2.89-.53,5.3-1.58,7.24-1.05,1.94-2.58,3.39-4.57,4.37-1.99.98-4.41,1.47-7.26,1.47h-6.97v-25.66h7.74c2.61,0,4.85.48,6.74,1.43,1.88.95,3.34,2.36,4.36,4.23,1.02,1.87,1.54,4.17,1.54,6.92ZM319.52,368.1c0-2.3-.38-4.21-1.15-5.7-.77-1.5-1.89-2.61-3.37-3.34-1.48-.73-3.29-1.1-5.43-1.1h-4.3v20.55h3.63c3.53,0,6.19-.87,7.96-2.61,1.77-1.74,2.66-4.34,2.66-7.79Z"/>
<path class="cls-2" d="M351.36,381.07v-25.66h2.98v25.66h-2.98Z"/>
<rect class="cls-2" x="64.23" y="367.48" width="69.76" height="1.88"/>
<rect class="cls-2" x="434.48" y="367.48" width="69.76" height="1.88"/>
<path class="cls-2" d="M395.05,355.42c-6.84,0-12.39,5.74-12.39,12.83s5.55,12.83,12.39,12.83,12.39-5.74,12.39-12.83-5.55-12.83-12.39-12.83ZM395.05,378.83c-5.16,0-9.36-4.75-9.36-10.58s4.2-10.58,9.36-10.58,9.36,4.75,9.36,10.58-4.2,10.58-9.36,10.58Z"/>
<g>
    <path class="cls-1" d="M211.39,229.3c8.78-21.12,17.56-42.23,26.34-63.35h-3.22c-8.63,20.85-17.25,41.69-25.88,62.54-.16.35-.42.91-.78,1.59-1.44,2.72-3.17,5.96-6.44,7.45-.74.34-2,.79-3.78.82-1.57.03-3.13.07-4.7.1v1.26c4.88-.08,9.84-.12,14.86-.11,3.94,0,7.84.04,11.69.11,0-.42.02-.84.03-1.26-1.99-.08-3.98-.17-5.97-.25-2.01-.15-2.59-1.28-2.81-1.59-1.2-1.68-.48-4.08-.04-5.56.23-.77.5-1.37.69-1.76Z"/>
    <path class="cls-1" d="M319.37,159.74l-39.52-98.57h-1.97s-25.96,62.72-38.94,94.08c1.11-.08,2.22-.16,3.34-.24,10.63-25.58,21.27-51.16,31.9-76.74,2.92,7.1,18.55,45.76,33.37,82.53,1.89-.07,4.13.08,6.65-.2,1.83-.2,3.62-.5,5.17-.85Z"/>
    <path class="cls-1" d="M357.51,237.98c-.79-.13-1.63-.35-2.49-.7-3.46-1.41-6.53-5.8-7.65-8.11-1.52-3.14-10.27-25.03-24.06-59.55-1.5.61-2.94,1.37-4.98,1.96-1.7.5-3.93.82-5.94,1.26,12.45,30.9,23.19,57.67,23.65,59.09.49,1.51.13,2.83.13,2.83-.09.34-.41,1.38-1.36,2.14-.74.59-1.52.71-2,.82-1.51.33-3.65.72-6.38.92v1.26l36.55-.03v-1.26c-1.82-.21-3.64-.42-5.47-.63Z"/>
  </g>
<path class="cls-2" d="M342.5,152.5c-8.65,9.74-21.21,16.16-34.22,17.65-6.08.85-12.71.52-18.44,1.88-4.01.96-7.06,3.22-9.45,6.48-11.94,16.31,9.01,27.56,14.54,42.07,4.29,9.58,1.66,20.63-5.46,28,9.34-17.91,1.64-27.07-10.57-40.15-9.59-10.27-13.6-22.14-4.53-34.42,5.92-8.19,14.67-9.99,24.03-9.72,17.04.66,29.73-2.18,44.09-11.8h0Z"/>
<path class="cls-2" d="M214.58,168.34c5.75-3.86,10.91-6,14.45-7.23,15.07-5.2,28.49-3.23,36.59-1.95,6.35,1.01,11.44,2.49,14.8,3.6-1.15.27-3.08.9-4.95,2.45-1.02.84-1.74,1.73-2.24,2.45-6.99-2.7-19.6-6.48-35.37-5.09-9.75.86-17.68,3.42-23.28,5.77Z"/>
<circle class="cls-2" cx="274.13" cy="143.93" r="9.52"/>
<g>
    <path class="cls-1" d="M209.04,265.39c.98,0,2.52.45,4.09,2.13,1.19,1.27,1.6,2.45,1.6,3.26.06,16.39.1,32.78.16,49.17-7.84-9.29-15.68-18.59-23.53-27.88-7.81-9.26-15.63-18.52-23.44-27.79h-10.8c0,.43,0,.67,0,1.1.37-.02,2.36,0,4.13,1.73.46.45,1.76,1.78,1.76,4.24s-.56,56.12-.56,56.99-.65,1.9-1.57,2.54c-.91.64-2.7.69-3.32.69,0,.31,0,.98,0,.98,0,0,3.79,0,5.89,0,2.35,0,4.69,0,7.03,0v-.99l-1.2-.02s-1.35,0-2.31-.81c-1.08-.9-1.41-1.86-1.41-2.51-.02-18.35-.05-36.69-.07-55.04,16.73,19.98,33.51,39.39,50.24,59.37h1.64c.02-20.78-.01-40.98,0-61.76,0-.86.22-1.92,1.23-3.16,1.68-2.07,3.25-2.26,4.44-2.26,0-.43,0-.67,0-1.1h-14.04c0,.43,0,.67,0,1.1Z"/>
    <path class="cls-1" d="M412.73,264.29l.02,1.2s1.43.05,2.1.09c.72.07,1.15.56,1.61,1.68.49,1.18.08,2.22,0,2.42-7.85,17.43-16.76,36.49-24.61,53.92-8.1-17.5-16.05-35.21-24.15-52.71-.41-1.01-.6-2.54.36-3.84.83-1.12,2.01-1.31,2.82-1.46.8-.15,1.14-.19,1.14-.19v-1.1s-20.01,0-20.01,0v1.1s1.26.1,2.34.19c1.08.09,1.9.57,2.98,1.56.87.8,1.07,1.56,1.34,2.08,10.06,21.12,20.12,42.23,30.17,63.35h1.35c9.86-21.35,19.72-42.71,29.57-64.06.23-.44.55-1.13.93-1.69.38-.56,1.58-1.14,2.44-1.23.86-.09,1.82-.19,1.82-.19,0,0,0-.67,0-1.1-.12,0-5.18,0-5.3,0-.14,0-6.93,0-6.93,0Z"/>
    <path class="cls-1" d="M123.67,331c-1.81-.83-2.65-2.43-2.99-3.04-1.64-2.88-13.03-28.6-28.23-63.82h-1.27c-5.91,13.87-11.54,27.2-18.5,43.67h0c-2.84,6.7-5.69,13.4-8.53,20.1-.42.89-1.38,2.03-3.12,2.87-.77.37-1.4.57-2.05.64-.78.09-1.39.12-2.27.14v.86h14.07c0-.33,0-.56,0-.89-.52,0-1.18-.04-1.77-.09-1.32-.12-1.96-1.42-2.15-2.61-.16-1.01.22-1.61.42-2.09,2.67-6.31,5.34-12.62,8.01-18.93h0c.12-.29.24-.57.36-.86h26.33l-.86-1.95h-24.64c4.91-11.61,8.75-20.7,12.92-30.55,7.61,17.5,15.21,35,22.82,52.5.07.19.56,1.75-.34,3.05-.78,1.12-1.86,1.29-2.42,1.39-.43.07-1.29.11-1.29.11,0,0,0,.62,0,.93h18.82v-.93s-2.09.02-3.27-.49Z"/>
    <path class="cls-1" d="M506.96,331c-1.81-.83-2.65-2.43-2.99-3.04-1.64-2.88-13.03-28.6-28.23-63.82h-1.27c-5.61,13.17-11.3,26.64-18.5,43.67h0c-2.84,6.7-5.69,13.4-8.53,20.1-.42.89-1.38,2.03-3.12,2.87-.77.37-1.4.57-2.05.64-.78.09-1.39.12-2.27.14v.86h14.07c0-.33,0-.56,0-.89-.52,0-1.18-.04-1.77-.09-1.32-.12-1.96-1.42-2.15-2.61-.16-1.01.22-1.61.42-2.09,2.67-6.31,5.34-12.62,8.01-18.93h0c.12-.29.24-.57.36-.86h26.33l-.86-1.95h-24.64c4.9-11.58,8.72-20.63,12.92-30.55,7.61,17.5,15.21,35,22.82,52.5.07.19.56,1.75-.34,3.05-.78,1.12-1.86,1.29-2.42,1.39-.43.07-1.29.11-1.29.11,0,0,0,.62,0,.93h18.82v-.93s-2.09.02-3.27-.49Z"/>
    <path class="cls-1" d="M291.37,263.98c-20.5,0-37.12,15.35-37.12,34.29s16.62,34.29,37.12,34.29,37.12-15.35,37.12-34.29-16.62-34.29-37.12-34.29ZM291.37,330.98c-16.14,0-29.27-14.67-29.27-32.7s13.13-32.7,29.27-32.7,29.27,14.67,29.27,32.7-13.13,32.7-29.27,32.7Z"/>
  </g>
</svg>
